<svg xmlns="http://www.w3.org/2000/svg" viewBox="0 0 49.89 46.58"><defs><style>.cls-1{fill:#90c753;}</style></defs><title>Logo3Asset 2</title><g id="Layer_2" data-name="Layer 2"><g id="Layer_1-2" data-name="Layer 1"><path class="cls-1" d="M29,30.83a31.67,31.67,0,0,1,5.43-3.09,21.56,21.56,0,0,0,7.16-5.24,26.09,26.09,0,0,0,4.14-6.78,68.06,68.06,0,0,0,4.19-15C50,.12,49.7,0,49.21,0c-1.81.11-3.61.32-5.4.6A35.6,35.6,0,0,0,30.56,5.08a17.54,17.54,0,0,0-6.93,7.4,19.65,19.65,0,0,0-1,13.75c.06.23.07.5.44.67A39.67,39.67,0,0,1,30,14.49C34,9.58,39.29,6.82,41.48,6.31c-15.14,8-19.91,25.3-19.15,34.87L21.9,41A30.58,30.58,0,0,0,10.73,20.27c5.4,3.14,8.56,8,10.53,13.84a1.08,1.08,0,0,0,.34-.77,18.52,18.52,0,0,0,.17-4.08A11.78,11.78,0,0,0,14.43,18.8c-3-1.37-6.2-2.53-9.2-4.05-.59-.3-.75-.18-.79.55A31.78,31.78,0,0,0,4.56,20c.34,3.7,1.5,7,4.32,9.62a44.49,44.49,0,0,0,4.82,3.61,20.19,20.19,0,0,1,6.78,7.21c-2.6-1.11-4.81-2.14-7.75-2.14C6.37,38.28,0,42.91,0,42.91c4.05-.57,6.05-2.28,12.61-1.86,9.13.58,10.73,5.53,20.37,5.53a16.34,16.34,0,0,0,13.89-7.52s-2.89,4-13.89,4a28.21,28.21,0,0,1-10-1.7A33.19,33.19,0,0,1,24,38,15.5,15.5,0,0,1,29,30.83Z"/></g></g></svg>